<svg width="20" height="19" viewBox="0 0 20 19" fill="none" xmlns="http://www.w3.org/2000/svg">
<rect y="-1" width="20" height="20" fill="white"/>
<path d="M19.602 1.5H0.39801C0.199005 1.5 0 1.3 0 1.2V0.3C0 0.2 0.199005 0 0.39801 0H19.602C19.801 0 20 0.2 20 0.3V1.1C20 1.3 19.801 1.5 19.602 1.5Z" fill="#465050"/>
<path d="M19.602 9.8H0.39801C0.199005 9.8 0 9.6 0 9.5V8.6C0 8.4 0.199005 8.3 0.39801 8.3H19.602C19.801 8.3 20 8.5 20 8.6V9.4C20 9.6 19.801 9.8 19.602 9.8Z" fill="#465050"/>
<path d="M19.602 18.1H0.39801C0.199005 18.1 0 17.9 0 17.8V17C0 16.8 0.199005 16.7 0.39801 16.7H19.602C19.801 16.7 20 16.9 20 17V17.8C20 17.9 19.801 18.1 19.602 18.1Z" fill="#465050"/>
</svg>
