<svg width="20" height="19" viewBox="0 0 20 19" fill="none" xmlns="http://www.w3.org/2000/svg">
<rect y="-1" width="20" height="20" fill="white"/>
<path d="M17.32 2.8707L3.7407 16.45C3.59998 16.5907 3.31784 16.59 3.24713 16.5193L2.61074 15.8829C2.54003 15.8122 2.53932 15.53 2.68004 15.3893L16.2593 1.81004C16.4 1.66932 16.6822 1.67002 16.7529 1.74073L17.3186 2.30642C17.46 2.44784 17.4607 2.72998 17.32 2.8707Z" fill="#465050"/>
<path d="M16.2593 16.37L2.68003 2.7907C2.53932 2.64999 2.54002 2.36785 2.61073 2.29714L3.24713 1.66074C3.38855 1.51932 3.59998 1.58933 3.74069 1.73004L17.32 15.3093C17.4607 15.45 17.46 15.7322 17.3893 15.8029L16.8236 16.3686C16.6822 16.51 16.4 16.5107 16.2593 16.37Z" fill="#465050"/>
</svg>
